<svg width="193" height="193" viewBox="0 0 193 193" fill="none" xmlns="http://www.w3.org/2000/svg">
<path d="M25.4671 23.9902C14.4328 35.0245 10.322 48.8037 16.2853 54.7669L95.0432 133.525C101.006 139.488 114.786 135.377 125.82 124.343C136.854 113.309 140.965 99.5296 135.002 93.5663L56.2438 14.8084C50.2805 8.84516 36.5013 12.956 25.4671 23.9902Z" fill="#6A6A6A"/>
<path d="M48.736 170.94C67.152 189.356 109.768 176.598 143.922 142.445C178.075 108.291 190.833 65.6752 172.417 47.2592L145.423 20.2656C127.008 1.84958 84.3914 14.6074 50.2378 48.761C16.0843 82.9146 3.3264 125.531 21.7424 143.947L48.736 170.94Z" fill="#6A6A6A"/>
<ellipse cx="111.092" cy="109.741" rx="47.1571" ry="87.4557" transform="rotate(45 111.092 109.741)" fill="#D9D9D9"/>
<path d="M103.59 102.113C92.5556 113.147 88.4448 126.926 94.4081 132.89L138.233 176.715C144.196 182.678 157.976 178.567 169.01 167.533C180.044 156.499 184.155 142.719 178.192 136.756L134.367 92.9312C128.403 86.9679 114.624 91.0788 103.59 102.113Z" fill="#6A6A6A"/>
<ellipse cx="158.212" cy="156.735" rx="15.2699" ry="28.2549" transform="rotate(45 158.212 156.735)" fill="#D9D9D9"/>
</svg>
