<svg width="245" height="245" viewBox="0 0 245 245" fill="none" xmlns="http://www.w3.org/2000/svg">
<path d="M22.8689 34.588C11.4555 47.7177 7.94727 63.3548 15.0331 69.5144L124.466 164.643C131.552 170.803 146.549 165.152 157.962 152.023C169.375 138.893 172.884 123.256 165.798 117.096L56.3649 21.9677C49.279 15.808 34.2824 21.4584 22.8689 34.588Z" fill="#A1A1A1"/>
<path d="M124.466 164.643C131.552 170.803 146.549 165.152 157.962 152.023C169.375 138.893 172.884 123.256 165.798 117.096L56.3649 21.9677C49.279 15.808 34.2824 21.4584 22.8689 34.588C11.4555 47.7177 7.94727 63.3548 15.0331 69.5144L125.221 165.299" stroke="#A1A1A1" stroke-width="2"/>
<path d="M125.341 32.9435C143.947 25.9132 160.553 26.4112 171.084 35.5654L203.159 63.4479C213.69 72.6021 216.494 88.9773 212.121 108.381C207.759 127.739 196.294 149.845 178.717 170.064C161.14 190.284 140.845 204.715 122.282 211.729C103.676 218.759 87.0701 218.261 76.5394 209.107L44.4642 181.224C33.9335 172.07 31.1292 155.695 35.5017 136.292C39.864 116.933 51.3296 94.8277 68.9064 74.6078C86.4832 54.388 106.778 39.9574 125.341 32.9435Z" fill="#A1A1A1" stroke="#A1A1A1" stroke-width="2"/>
<path d="M179.339 170.736C161.763 190.956 141.468 205.387 122.905 212.401C104.299 219.431 87.6928 218.933 77.162 209.779C66.6313 200.625 63.827 184.249 68.1995 164.846C72.5618 145.488 84.0274 123.382 101.604 103.162C119.181 82.9425 139.476 68.5119 158.039 61.498C176.645 54.4677 193.251 54.9657 203.782 64.1199C214.312 73.2741 217.117 89.6493 212.744 109.053C208.382 128.411 196.916 150.517 179.339 170.736Z" fill="#E8E8E8" stroke="#E8E8E8" stroke-width="2"/>
<path d="M131.547 129.061C120.134 142.19 116.626 157.827 123.711 163.987L190.881 222.376C197.966 228.536 212.963 222.886 224.377 209.756C235.79 196.626 239.298 180.989 232.212 174.83L165.043 116.44C157.957 110.281 142.961 115.931 131.547 129.061Z" fill="#A1A1A1" stroke="#A1A1A1" stroke-width="2"/>
<path d="M224.377 209.756C218.576 216.429 211.898 221.166 205.833 223.458C199.724 225.766 194.494 225.518 191.258 222.704C188.022 219.891 187.048 214.747 188.483 208.376C189.909 202.051 193.67 194.779 199.471 188.106C205.272 181.433 211.95 176.696 218.015 174.404C224.124 172.096 229.353 172.344 232.59 175.158C235.826 177.971 236.8 183.115 235.364 189.486C233.939 195.811 230.178 203.083 224.377 209.756Z" fill="#E8E8E8" stroke="#E8E8E8" stroke-width="2"/>
</svg>
